<?xml version="1.0" encoding="iso-8859-1"?>
<!-- Generator: Adobe Illustrator 19.0.0, SVG Export Plug-In . SVG Version: 6.00 Build 0)  -->
<svg version="1.1" id="Capa_1" xmlns="http://www.w3.org/2000/svg" xmlns:xlink="http://www.w3.org/1999/xlink" x="0px" y="0px"
	 viewBox="0 0 512.001 512.001" style="enable-background:new 0 0 512.001 512.001;" xml:space="preserve">
<g>
	<g>
		<path d="M400.121,231.153l-21.883-38.319c-2.045-3.582-6.608-4.827-10.189-2.783c-3.583,2.046-4.829,6.608-2.783,10.189
			l21.883,38.322c0.073,0.127,0.296,0.518-0.006,1.036c-0.301,0.519-0.75,0.519-0.897,0.519H331.54v-98.936l12.38,21.679
			c1.378,2.414,3.899,3.767,6.493,3.767c1.256,0,2.529-0.317,3.697-0.984c3.583-2.046,4.829-6.608,2.783-10.189l-25.761-45.112
			c-2.933-39.136-21.542-75.32-52.066-100.559l-7.995-6.611c-4.929-4.079-11.944-4.242-17.067-0.389l-8.983,6.773
			c-23.942,18.054-41.477,43.16-50.559,71.208c-0.257,0.557-0.447,1.15-0.561,1.771c-2.555,8.248-4.382,16.742-5.429,25.377
			c-0.397,0.422-0.753,0.897-1.053,1.423l-69.565,121.818c-2.856,5-2.834,10.962,0.059,15.945c2.893,4.983,8.058,7.957,13.817,7.957
			h55.702v63.101c0,18.355,9.868,35.473,25.749,44.674l10.694,6.205c0.667,0.384,1.082,1.109,1.082,1.893v16.981
			c0,7.709,6.272,13.983,13.983,13.983h8.643l-3.458,23.887c-0.418,2.888,0.885,5.756,3.337,7.342
			c4.91,3.175,9.96,4.762,15.01,4.762s10.102-1.587,15.01-4.762c2.452-1.585,3.756-4.454,3.337-7.342l-3.458-23.887h6.901
			c7.71,0,13.983-6.273,13.983-13.983v-19.431c0-0.787,0.424-1.521,1.096-1.912l6.444-3.735
			c15.885-9.202,25.753-26.322,25.753-44.676v-63.101h54.706c5.759,0,10.925-2.975,13.817-7.957
			C402.954,242.114,402.977,236.154,400.121,231.153z M187.432,240.117h-55.702c-0.147,0-0.598,0-0.897-0.519
			c-0.302-0.519-0.079-0.908-0.006-1.037l56.605-99.125V240.117z M254.014,21.484l8.242-6.214l7.288,6.027
			c17.937,14.832,31.286,33.879,39.097,55.124h-96.717C220.67,54.884,235.116,35.735,254.014,21.484z M206.885,91.358h106.247
			c0.543,2.307,1.025,4.631,1.442,6.971H205.198C205.696,95.988,206.259,93.664,206.885,91.358z M259.692,422.526l2.782-19.22
			l2.782,19.22C263.384,423.057,261.563,423.057,259.692,422.526z M316.6,318.158c0,13.042-7.013,25.209-18.305,31.751l-6.454,3.741
			c-5.264,3.061-8.534,8.745-8.534,14.832v18.475h-8.107l-5.335-36.864c-0.532-3.673-3.68-6.4-7.393-6.4
			c-3.713,0-6.861,2.726-7.393,6.4l-5.335,36.864h-9.85v-16.025c0-6.108-3.28-11.793-8.541-14.826l-10.681-6.197
			c-11.291-6.54-18.304-18.707-18.304-31.751v-52.137c1.088,0.567,2.098,1.364,3.376,2.37c3.524,2.779,8.351,6.583,17.257,6.583
			c8.905,0,13.733-3.804,17.256-6.583c2.761-2.177,4.281-3.376,8.007-3.376s5.247,1.199,8.008,3.376
			c3.525,2.779,8.351,6.583,17.256,6.583c8.907,0,13.735-3.804,17.258-6.583c2.762-2.177,4.283-3.376,8.01-3.376
			c3.728,0,5.249,1.199,8.011,3.377c2.382,1.877,5.36,4.224,9.79,5.548V318.158z M316.6,257.087
			c-0.176-0.138-0.357-0.28-0.543-0.427c-3.524-2.779-8.351-6.583-17.258-6.583c-8.906,0-13.734,3.804-17.257,6.582
			c-2.762,2.178-4.283,3.377-8.011,3.377c-3.726,0-5.246-1.199-8.007-3.376c-3.525-2.779-8.351-6.583-17.257-6.583
			c-8.905,0-13.733,3.804-17.256,6.583c-2.761,2.177-4.281,3.376-8.007,3.376c-3.726,0-5.247-1.199-8.008-3.376
			c-2.858-2.254-6.573-5.182-12.625-6.208v-57.043h0H316.6V257.087z M316.6,178.471H202.37V125.09c0-3.962,0.186-7.906,0.55-11.821
			h112.337c0.372,0,0.737-0.028,1.095-0.081c0.165,2.682,0.249,5.379,0.249,8.088V178.471z"/>
	</g>
</g>
<g>
	<g>
		<path d="M230.604,425.356c-4.126,0-7.469,3.343-7.469,7.469v30.873c0,4.126,3.343,7.469,7.469,7.469s7.469-3.343,7.469-7.469
			v-30.873C238.073,428.701,234.729,425.356,230.604,425.356z"/>
	</g>
</g>
<g>
	<g>
		<path d="M288.367,456.23c-4.126,0-7.469,3.343-7.469,7.469v40.832c0,4.126,3.343,7.469,7.469,7.469
			c4.126,0,7.469-3.343,7.469-7.469v-40.832C295.836,459.574,292.492,456.23,288.367,456.23z"/>
	</g>
</g>
<g>
	<g>
		<path d="M259.486,463.201c-4.126,0-7.469,3.343-7.469,7.469v18.922c0,4.126,3.343,7.469,7.469,7.469
			c4.126,0,7.469-3.343,7.469-7.469V470.67C266.955,466.545,263.611,463.201,259.486,463.201z"/>
	</g>
</g>
<g>
	<g>
		<path d="M230.604,479.136c-4.126,0-7.469,3.343-7.469,7.469v14.939c0,4.126,3.343,7.469,7.469,7.469s7.469-3.343,7.469-7.469
			v-14.939C238.073,482.48,234.729,479.136,230.604,479.136z"/>
	</g>
</g>
<g>
	<g>
		<path d="M288.367,283.937c-10.708,0-19.42,8.712-19.42,19.42c0,10.708,8.712,19.42,19.42,19.42c10.708,0,19.42-8.712,19.42-19.42
			C307.787,292.65,299.075,283.937,288.367,283.937z M288.367,307.839c-2.471,0-4.482-2.011-4.482-4.482
			c0-2.471,2.011-4.482,4.482-4.482s4.482,2.011,4.482,4.482C292.849,305.828,290.838,307.839,288.367,307.839z"/>
	</g>
</g>
<g>
	<g>
		<path d="M239.567,298.876c-10.708,0-19.42,8.712-19.42,19.42c0,10.708,8.712,19.42,19.42,19.42s19.42-8.712,19.42-19.42
			C258.988,307.588,250.275,298.876,239.567,298.876z M239.567,322.778c-2.471,0-4.482-2.011-4.482-4.482s2.011-4.482,4.482-4.482
			c2.471,0,4.482,2.011,4.482,4.482S242.038,322.778,239.567,322.778z"/>
	</g>
</g>
<g>
	<g>
		<path d="M491.079,84.436c-2.739-2.741-6.185-4.518-9.926-5.165c0.074-0.832,0.112-1.666,0.112-2.503
			c0-15.585-12.679-28.265-28.265-28.265c-0.666,0-1.331,0.023-1.991,0.069c-6.654-11.154-18.628-18.085-31.96-18.085
			c-18.852,0-34.29,13.682-36.885,31.871c-5.541,3.825-9.191,9.877-9.946,16.64h-6.539c-10.23,0-18.554,8.328-18.554,18.565
			c0,4.955,1.93,9.613,5.434,13.12c3.506,3.505,8.163,5.434,13.12,5.434h112.279c10.23,0,18.554-8.323,18.554-18.554
			C496.512,92.601,494.582,87.939,491.079,84.436z M477.958,101.179H365.679c-1.304,0-2.161-0.663-2.555-1.058
			c-0.684-0.684-1.06-1.592-1.06-2.557c0-2,1.621-3.626,3.615-3.626h14.62c2.385,0,4.627-1.139,6.033-3.065
			c1.406-1.926,1.808-4.409,1.082-6.68c-0.267-0.833-0.401-1.699-0.401-2.574c0-3.409,2.028-6.471,5.167-7.802
			c2.693-1.141,4.471-3.751,4.55-6.674c0.333-12.177,10.137-21.716,22.321-21.716c9.257,0,17.421,5.58,20.801,14.215
			c1.433,3.662,5.46,5.59,9.209,4.399c1.255-0.396,2.58-0.599,3.941-0.599c7.348,0,13.326,5.978,13.326,13.326
			c0,2.196-0.516,4.284-1.533,6.206c-1.225,2.314-1.148,5.103,0.203,7.347c1.35,2.244,3.78,3.616,6.399,3.616h6.563
			c1.303,0,2.16,0.663,2.555,1.06c0.483,0.482,1.059,1.32,1.059,2.565C481.573,99.558,479.952,101.179,477.958,101.179z"/>
	</g>
</g>
<g>
	<g>
		<path d="M165.278,373.001c-2.883-2.895-6.534-4.747-10.499-5.366c0.097-0.963,0.145-1.93,0.145-2.899
			c0-16.09-13.09-29.18-29.18-29.18c-0.759,0-1.515,0.029-2.269,0.088c-6.866-11.659-19.322-18.91-33.206-18.91
			c-19.567,0-35.583,14.241-38.206,33.148c-5.86,3.998-9.695,10.395-10.404,17.524h-7.12c-10.505,0-19.052,8.547-19.052,19.053
			c0,5.1,1.988,9.888,5.572,13.456c3.591,3.609,8.38,5.596,13.48,5.596h117.258c10.505,0,19.052-8.547,19.052-19.052
			C170.851,381.356,168.863,376.568,165.278,373.001z M151.798,390.57H34.539c-1.097,0-2.124-0.425-2.917-1.221
			c-0.771-0.768-1.196-1.796-1.196-2.892c0-2.268,1.845-4.114,4.113-4.114h15.267c2.388,0,4.633-1.141,6.038-3.073
			c1.405-1.93,1.804-4.418,1.07-6.69c-0.289-0.894-0.436-1.828-0.436-2.775c0-3.69,2.204-7.012,5.615-8.464
			c2.687-1.143,4.461-3.75,4.541-6.669c0.353-12.897,10.734-23.001,23.635-23.001c9.811,0,18.459,5.912,22.035,15.059
			c1.427,3.649,5.432,5.578,9.175,4.413c1.385-0.43,2.819-0.648,4.264-0.648c7.853,0,14.242,6.389,14.242,14.242
			c0,2.35-0.553,4.586-1.641,6.644c-1.225,2.315-1.148,5.103,0.203,7.347c1.35,2.245,3.779,3.617,6.399,3.617h6.852
			c1.097,0,2.124,0.425,2.917,1.221c0.771,0.768,1.196,1.796,1.196,2.893C155.911,388.725,154.066,390.57,151.798,390.57z"/>
	</g>
</g>
<g>
</g>
<g>
</g>
<g>
</g>
<g>
</g>
<g>
</g>
<g>
</g>
<g>
</g>
<g>
</g>
<g>
</g>
<g>
</g>
<g>
</g>
<g>
</g>
<g>
</g>
<g>
</g>
<g>
</g>
</svg>
